<?xml version="1.0" encoding="utf-8"?>
<!-- Generator: Adobe Illustrator 25.2.3, SVG Export Plug-In . SVG Version: 6.00 Build 0)  -->
<svg version="1.1" id="Layer_1" xmlns="http://www.w3.org/2000/svg" xmlns:xlink="http://www.w3.org/1999/xlink" x="0px" y="0px"
	 viewBox="0 0 1510.3 419.7" style="enable-background:new 0 0 1510.3 419.7;" xml:space="preserve">
<style type="text/css">
	.st0{fill:#FFF200;}
	.st1{fill-rule:evenodd;clip-rule:evenodd;fill:#FFF200;}
</style>
<g>
	<polygon points="1377.7,402.6 22.6,402.6 132.6,17.1 1487.6,17.1 	"/>
	<path class="st0" d="M1487.6,0h-1368L0,419.7h1390.6L1510.3,0H1487.6z M1465,34.2c-10.7,37.5-93.9,329.5-100.2,351.3
		c-24.9,0-1276.2,0-1319.5,0c10.7-37.5,94-329.5,100.2-351.3C170.4,34.2,1421.6,34.2,1465,34.2z"/>
	<g>
		<path class="st1" d="M386.8,327.5h90.5l124-182.7h-81.5l-71.6,123.6l-7.9-123.8c-23.1,0-46.5,0-69.9,0L386.8,327.5L386.8,327.5z"
			/>
		<path class="st1" d="M1011.6,328.6c-19.6-2.1-33.1-17.9-33.1-37c0-3.1,0-5.2,0.6-8l46.4-171.7H277.6l5.5-16.8h747.9l6.6-25h80.7
			l-8.1,25h150.9l-5.5,16.8h-149.8l-41.8,146.4c0,0-2.6,7.6,0.5,11.5c3.1,4,9.7,5.7,12.4,6l17.8,1.1l-14.3,51.7H1011.6L1011.6,328.6
			z"/>
		<polygon class="st1" points="1118.4,275.8 1101.5,328.6 1303.6,328.6 1316.8,282 1204.3,282 1344.6,184.8 1357.8,138.3 
			1161.7,138.3 1149.4,183.8 1242.3,183.8 1118.4,275.8 		"/>
		<path class="st1" d="M844.6,144.7h77.1l-6.6,25.8c21.1-20.6,51.2-32.3,79.1-32.3c0,0,2.2,0,2.2,0.5l-15.6,55
			c-2.2-1.5-6.8-1.5-10.1-1.5c-4.8,0-26.5,2.4-42.7,11.5c-17.7,10-30.1,27.3-34.2,37.6l-25.7,87.1h-76L844.6,144.7L844.6,144.7z"/>
		<path class="st1" d="M185.2,248.2c-0.5,2.7-0.8,5.2-0.8,7.7c0,49.4,73.9,52.7,96.7,16.1h67c-12.5,26.9-35.2,47.4-64.6,57.1
			c-57,15.1-158.4,9.7-160.6-65.8c2.2-45.1,27.2-86.1,68.3-108.7C249.4,118,364,129.8,364,213.8c0,11.8-3.3,23.6-7.9,34.3H185.4
			L185.2,248.2z M195.9,215.9c0,0,72.8,0,109.2,0l0,0c0-22.5-19.4-40.9-43.3-42C231,173.9,206,191.2,195.9,215.9L195.9,215.9z"/>
		<path class="st1" d="M630.1,248.2c-0.5,2.7-0.8,5.2-0.8,7.7c0,49.4,73.9,52.7,96.7,16.1h67c-12.5,26.9-35.2,47.4-64.6,57.1
			c-57.1,15.1-158.4,9.7-160.6-65.8c2.2-45.1,27.2-86.1,68.3-108.7C694.3,118,809,129.8,809,213.8c0,11.8-3.3,23.6-7.9,34.3H630.3
			L630.1,248.2z M640.8,215.9c0,0,72.8,0,109.2,0l0,0c0-22.5-19.4-40.9-43.3-42C675.9,173.9,651,191.2,640.8,215.9L640.8,215.9z"/>
	</g>
	<path class="st0" d="M1327.9,330.8c-7,0-12.7-5.3-12.7-11.8c0-6.5,5.7-11.8,12.7-11.8c7,0,12.7,5.3,12.7,11.8
		C1340.6,325.5,1334.9,330.7,1327.9,330.8z M1327.9,308.6c-6.2,0-11.2,4.7-11.2,10.5c0,5.7,5,10.4,11.2,10.4
		c6.2,0,11.2-4.6,11.2-10.4C1339.1,313.2,1334.1,308.6,1327.9,308.6z M1323.1,312.1h6.3c2.2,0,4.3,0.4,4.5,3.3
		c0.1,1.7-0.5,2.3-1.8,3.2c1.4,0.9,1.5,1.1,1.7,3.3c0.1,1.7-0.1,2,0.7,3.1h-2.1l-0.3-1.6c-0.3-1.5,0.5-3.9-2.4-3.9h-4.6v5.6h-1.8
		V312.1z M1325,313.6v4.5h4.5c1.2,0,2.4-0.3,2.6-2c0.3-2.2-1.5-2.5-2.6-2.5H1325z"/>
</g>
</svg>
